<svg width="147" height="60" viewBox="0 0 147 60" fill="none" xmlns="http://www.w3.org/2000/svg">
<path d="M67.6064 25.951V2.18211H73.8071V11.0315H73.9513L79.8636 2.18211H86.6411L79.6473 11.8359L88.011 25.951H81.2335L76.0422 16.8091L73.8071 20.0271V25.951H67.6064Z" fill="white"/>
<path d="M94.8665 26.3898C92.8957 26.3898 91.4657 25.7194 90.5765 24.3786C89.6872 23.0134 89.2426 21.1972 89.2426 18.9301V7.66725H95.4433V18.1256C95.4433 19.2957 95.5875 20.0758 95.8759 20.4659C96.1883 20.856 96.645 21.051 97.2458 21.051C97.8226 21.051 98.3033 20.9291 98.6878 20.6853C99.0724 20.4415 99.4569 20.0271 99.8414 19.442V7.66725H106.042V25.951H100.995L100.562 23.5376H100.418C99.6972 24.4152 98.8921 25.11 98.0029 25.6219C97.1377 26.1339 96.0922 26.3898 94.8665 26.3898Z" fill="white"/>
<path d="M120.25 26.3898C118.592 26.3898 117.078 25.5854 115.708 23.9764H115.564L115.059 25.951H110.228V0.5H116.429V6.42395L116.285 9.05682C117.607 7.8379 119.085 7.22843 120.719 7.22843C122.137 7.22843 123.375 7.61849 124.432 8.3986C125.49 9.15433 126.307 10.227 126.884 11.6165C127.461 12.9817 127.749 14.6029 127.749 16.48C127.749 18.5766 127.388 20.3684 126.667 21.8555C125.946 23.3425 125.009 24.4761 123.856 25.2563C122.726 26.012 121.524 26.3898 120.25 26.3898ZM118.736 21.2704C119.457 21.2704 120.082 20.9291 120.611 20.2465C121.14 19.5639 121.404 18.345 121.404 16.5897C121.404 15.0783 121.188 13.9934 120.755 13.3352C120.347 12.677 119.722 12.3479 118.881 12.3479C118.424 12.3479 118.003 12.4454 117.619 12.6404C117.234 12.8355 116.838 13.1768 116.429 13.6643V20.3928C116.79 20.7097 117.162 20.9413 117.547 21.0875C117.955 21.2094 118.352 21.2704 118.736 21.2704Z" fill="white"/>
<path d="M139.504 26.3898C137.75 26.3898 136.164 26.012 134.746 25.2563C133.352 24.5005 132.246 23.4157 131.429 22.0017C130.612 20.5634 130.203 18.8325 130.203 16.8091C130.203 14.8345 130.612 13.1402 131.429 11.7262C132.27 10.2879 133.352 9.17871 134.673 8.3986C135.995 7.61849 137.389 7.22843 138.855 7.22843C140.634 7.22843 142.1 7.63068 143.253 8.43516C144.431 9.21527 145.296 10.2757 145.849 11.6165C146.426 12.9574 146.714 14.4444 146.714 16.0778C146.714 16.6141 146.678 17.1382 146.606 17.6502C146.558 18.1378 146.51 18.4912 146.462 18.7107H136.188C136.476 19.8077 136.993 20.5756 137.738 21.0144C138.483 21.4288 139.36 21.6361 140.369 21.6361C141.523 21.6361 142.749 21.2704 144.047 20.539L146.065 24.2689C145.104 24.9515 144.023 25.4757 142.821 25.8413C141.619 26.207 140.514 26.3898 139.504 26.3898ZM136.115 14.6151H141.451C141.451 13.9081 141.271 13.2987 140.91 12.7867C140.574 12.2504 139.937 11.9822 139 11.9822C138.327 11.9822 137.726 12.1894 137.197 12.6039C136.668 13.0183 136.308 13.6887 136.115 14.6151Z" fill="white"/>
<path d="M67.6064 59.0265V35.2151H73.66V44.0803H73.8008L79.5728 35.2151H86.1895L79.3616 44.8862L87.5269 59.0265H80.9102L75.8421 49.8683L73.66 53.092V59.0265H67.6064Z" fill="#3F83F8"/>
<path d="M89.2138 59.0265V40.71H95.2673V59.0265H89.2138ZM92.2405 38.4388C91.2551 38.4388 90.4573 38.1579 89.8473 37.5962C89.2372 37.0101 88.9322 36.2408 88.9322 35.2884C88.9322 34.3359 89.2372 33.5788 89.8473 33.0171C90.4573 32.431 91.2551 32.1379 92.2405 32.1379C93.226 32.1379 94.0238 32.431 94.6338 33.0171C95.2439 33.5788 95.5489 34.3359 95.5489 35.2884C95.5489 36.2408 95.2439 37.0101 94.6338 37.5962C94.0238 38.1579 93.226 38.4388 92.2405 38.4388Z" fill="#3F83F8"/>
<path d="M106.603 59.4661C104.327 59.4661 102.673 58.7823 101.641 57.4147C100.632 56.0226 100.127 54.2154 100.127 51.993V45.6189H97.8044V40.9298L100.479 40.71L101.183 35.9478H106.181V40.71H110.193V45.6189H106.181V51.8831C106.181 52.8844 106.392 53.5804 106.814 53.9712C107.237 54.3619 107.729 54.5573 108.293 54.5573C108.574 54.5573 108.844 54.5329 109.102 54.484C109.384 54.4108 109.63 54.3375 109.841 54.2642L110.756 58.8067C110.31 58.9532 109.747 59.0998 109.067 59.2463C108.386 59.3928 107.565 59.4661 106.603 59.4661Z" fill="#3F83F8"/>
<g clip-path="url(#clip0_1179_2568)">
<path d="M25.6507 2.5H0V59.5H25.6507V2.5Z" fill="#3F83F8"/>
<path d="M32.8948 26.6755L25.6646 31.0069H42.6914L57.0001 26.6755H32.8948Z" fill="#7297FF"/>
<path d="M57.0002 26.6755H32.8949L29.5557 28.6682L25.6509 31.0069V16.7673L29.5557 9.0732L32.8949 2.5L57.0002 26.6755Z" fill="#3158AD"/>
<path d="M32.8948 35.3244L25.6646 31.0069H42.6914L57.0001 35.3244H32.8948Z" fill="#4268D0"/>
<path d="M57.0002 35.3244L32.8949 59.5L29.5557 52.9268L25.6509 45.2465V31.0069L29.5557 33.3317L32.8949 35.3244H57.0002Z" fill="#3158AD"/>
<path d="M56.9998 35.3245H32.8945V59.5H56.9998V35.3245Z" fill="#A4CAFE"/>
<path d="M56.9998 2.5H32.8945V26.6755H56.9998V2.5Z" fill="#E1EFFE"/>
</g>
<defs>
<clipPath id="clip0_1179_2568">
<rect width="57" height="57" fill="white" transform="translate(0 2.5)"/>
</clipPath>
</defs>
</svg>
